<svg width="11" height="17" viewBox="0 0 11 17" fill="none" xmlns="http://www.w3.org/2000/svg">
<path d="M10.1161 9.32234L0.973214 0.179478C0.866071 0.063406 0.723214 0.00983429 0.571429 0.00983429C0.5 0.00983429 0.419643 0.0276918 0.357143 0.0544777C0.142857 0.143764 0 0.34912 0 0.581264V14.0098C0 14.242 0.142857 14.4473 0.357143 14.5366C0.419643 14.5634 0.5 14.5813 0.571429 14.5813C0.723214 14.5813 0.866071 14.5188 0.973214 14.4116L3.75893 11.6259L5.46429 15.6616C5.58929 15.9473 5.91964 16.0902 6.21429 15.9652L7.79464 15.2955C8.08036 15.1705 8.22322 14.8402 8.09822 14.5455L6.30357 10.2955H9.71429C9.94643 10.2955 10.1518 10.1527 10.2411 9.93841C10.3304 9.73305 10.2857 9.48305 10.1161 9.32234Z" fill="white"/>
</svg>
