<svg width="18" height="14" viewBox="0 0 18 14" fill="none" xmlns="http://www.w3.org/2000/svg">
<path d="M9.48214 5.36698L10.6518 5.91162L12.3929 5.39376V4.17948C12.3929 2.11698 10.6518 0.465192 8.57143 0.465192C6.5 0.465192 4.75 2.10805 4.75 4.15269V9.68841C4.75 10.1973 4.33929 10.5991 3.83929 10.5991C3.33929 10.5991 2.92857 10.1973 2.92857 9.68841V7.34912H0C0 9.69734 0 9.72412 0 9.72412C0 11.8402 1.71429 13.5545 3.83036 13.5545C5.92857 13.5545 7.66071 11.867 7.66071 9.77769V4.31341C7.66071 3.81341 8.07143 3.40269 8.57143 3.40269C9.07143 3.40269 9.48214 3.81341 9.48214 4.31341V5.36698ZM14.2143 7.34912V9.80448C14.2143 10.3045 13.8036 10.7063 13.3036 10.7063C12.8036 10.7063 12.3929 10.3045 12.3929 9.80448V7.39376L10.6518 7.91162L9.48214 7.36698V9.75984C9.48214 11.858 11.2054 13.5545 13.3125 13.5545C15.4286 13.5545 17.1429 11.8402 17.1429 9.72412C17.1429 9.72412 17.1429 9.69734 17.1429 7.34912H14.2143Z" fill="white"/>
</svg>
