<svg width="14" height="16" viewBox="0 0 14 16" fill="none" xmlns="http://www.w3.org/2000/svg">
<path d="M12.5714 1.15269H13.4286C13.5893 1.15269 13.7143 1.02769 13.7143 0.866978V0.295549C13.7143 0.134835 13.5893 0.00983429 13.4286 0.00983429H0.285714C0.125 0.00983429 0 0.134835 0 0.295549V0.866978C0 1.02769 0.125 1.15269 0.285714 1.15269H1.14286C1.14286 4.45626 2.72321 6.84912 4.47321 8.00984C2.72321 9.17055 1.14286 11.5634 1.14286 14.867H0.285714C0.125 14.867 0 14.992 0 15.1527V15.7241C0 15.8848 0.125 16.0098 0.285714 16.0098H13.4286C13.5893 16.0098 13.7143 15.8848 13.7143 15.7241V15.1527C13.7143 14.992 13.5893 14.867 13.4286 14.867H12.5714C12.5714 11.5634 10.9911 9.17055 9.24107 8.00984C10.9911 6.84912 12.5714 4.45626 12.5714 1.15269ZM11.4286 1.15269C11.4286 2.45626 11.1339 3.60805 10.6696 4.58126H3.04464C2.58036 3.60805 2.28571 2.45626 2.28571 1.15269H11.4286ZM10.9196 12.0098H2.79464C3.45536 10.2866 4.64286 9.06341 5.83036 8.58126H7.88393C9.07143 9.06341 10.2589 10.2866 10.9196 12.0098Z" fill="white"/>
</svg>
